<?xml version="1.0" encoding="UTF-8"?>
<svg width="164px" height="32px" viewBox="0 0 164 32" version="1.1" xmlns="http://www.w3.org/2000/svg" xmlns:xlink="http://www.w3.org/1999/xlink">
    <title>Group 2</title>
    <defs>
        <linearGradient x1="50%" y1="3.77777778%" x2="50%" y2="93.4888889%" id="linearGradient-1">
            <stop stop-color="#FFF650" offset="0%"></stop>
            <stop stop-color="#FFAB17" offset="100%"></stop>
        </linearGradient>
        <linearGradient x1="50%" y1="3.77777778%" x2="50%" y2="93.4888889%" id="linearGradient-2">
            <stop stop-color="#E864FF" offset="0%"></stop>
            <stop stop-color="#BA20ED" offset="100%"></stop>
        </linearGradient>
        <linearGradient x1="550%" y1="1429.8%" x2="550%" y2="2209.8%" id="linearGradient-3">
            <stop stop-color="#E864FF" offset="0%"></stop>
            <stop stop-color="#BA20ED" offset="100%"></stop>
        </linearGradient>
        <linearGradient x1="1850%" y1="1429.8%" x2="1850%" y2="2209.8%" id="linearGradient-4">
            <stop stop-color="#FFF650" offset="0%"></stop>
            <stop stop-color="#FFAB17" offset="100%"></stop>
        </linearGradient>
    </defs>
    <g id="Page-1" stroke="none" stroke-width="1" fill="none" fill-rule="evenodd">
        <g id="Group-2" fill-rule="nonzero">
            <g id="Group" transform="translate(1.000000, 1.000000)">
                <g id="Wozaizhao" transform="translate(41.286000, 6.034000)" fill="currentColor">
                    <path d="M19.786,0.624 L16.302,16.354 C16.0246667,17.5846667 15.366,18.2 14.326,18.2 C13.2513333,18.2 12.5926667,17.5933333 12.35,16.38 L9.854,4.134 L7.436,16.38 C7.19333333,17.5933333 6.53466667,18.2 5.46,18.2 C4.42,18.2 3.76133333,17.5846667 3.484,16.354 L0,0.624 L2.47,0.624 L5.538,14.326 L7.956,2.366 C8.216,1.066 8.85733333,0.416 9.88,0.416 C10.92,0.416 11.57,1.066 11.83,2.366 L14.248,14.326 L17.316,0.624 L19.786,0.624 Z" id="Path"></path>
                    <path d="M32.11,14.716 C32.11,15.86 31.746,16.7266667 31.018,17.316 C30.498,17.7493333 29.718,17.966 28.678,17.966 L24.804,17.966 C23.6253333,17.966 22.7413333,17.68 22.152,17.108 C21.5626667,16.536 21.268,15.7386667 21.268,14.716 L21.268,8.242 C21.268,7.098 21.6406667,6.22266667 22.386,5.616 C22.9233333,5.16533333 23.7293333,4.94 24.804,4.94 L28.678,4.94 C29.7526667,4.94 30.5413333,5.15666667 31.044,5.59 C31.7546667,6.19666667 32.11,7.08066667 32.11,8.242 L32.11,14.716 Z M29.874,14.118 L29.874,8.866 C29.874,8.27666667 29.7006667,7.826 29.354,7.514 C29.0766667,7.27133333 28.6433333,7.15 28.054,7.15 L25.402,7.15 C24.7953333,7.15 24.3446667,7.27133333 24.05,7.514 C23.686,7.80866667 23.504,8.25933333 23.504,8.866 L23.504,14.092 C23.504,14.664 23.686,15.0973333 24.05,15.392 C24.3273333,15.6173333 24.726,15.73 25.246,15.73 L28.21,15.73 C28.7126667,15.73 29.094,15.6173333 29.354,15.392 C29.7006667,15.0973333 29.874,14.6726667 29.874,14.118 Z" id="Shape"></path>
                    <path d="M45.812,6.552 C45.812,7.02 45.656,7.41 45.344,7.722 L37.466,15.73 L45.5,15.73 L45.5,17.966 L36.4,17.966 C35.8626667,17.966 35.3946667,17.8273333 34.996,17.55 C34.5973333,17.2726667 34.398,16.874 34.398,16.354 C34.398,15.9553333 34.606,15.5393333 35.022,15.106 L42.692,7.15 L34.658,7.15 L34.658,4.94 L43.784,4.94 C45.136,4.94 45.812,5.47733333 45.812,6.552 Z" id="Path"></path>
                    <path d="M59.046,14.716 C59.046,15.6866667 58.7643333,16.471 58.201,17.069 C57.6376667,17.667 56.8706667,17.966 55.9,17.966 L51.636,17.966 C50.6133333,17.966 49.7986667,17.706 49.192,17.186 C48.5333333,16.6313333 48.204,15.8513333 48.204,14.846 L48.204,12.506 C48.204,11.4833333 48.4986667,10.686 49.088,10.114 C49.6773333,9.542 50.4833333,9.256 51.506,9.256 L56.836,9.256 C56.8186667,8.528 56.7146667,8.01666667 56.524,7.722 C56.2813333,7.34066667 55.8133333,7.15 55.12,7.15 L48.256,7.15 L48.256,4.94 L55.432,4.94 C57.8413333,4.94 59.046,6.04066667 59.046,8.242 L59.046,14.716 Z M56.81,14.274 L56.81,11.778 C56.81,11.5006667 56.6366667,11.362 56.29,11.362 L52.026,11.362 C50.9686667,11.362 50.44,11.8993333 50.44,12.974 L50.44,14.248 C50.44,14.6986667 50.596,15.0583333 50.908,15.327 C51.22,15.5956667 51.6013333,15.73 52.052,15.73 L55.25,15.73 C56.29,15.73 56.81,15.2446667 56.81,14.274 Z" id="Shape"></path>
                    <path d="M64.402,1.482 C64.402,1.88066667 64.2546667,2.22733333 63.96,2.522 C63.6653333,2.81666667 63.3186667,2.964 62.92,2.964 C62.5213333,2.964 62.179,2.821 61.893,2.535 C61.607,2.249 61.464,1.90666667 61.464,1.508 C61.464,1.092 61.6026667,0.736666667 61.88,0.442 C62.1573333,0.147333333 62.504,0 62.92,0 C63.336,0 63.687,0.143 63.973,0.429 C64.259,0.715 64.402,1.066 64.402,1.482 Z M64.064,17.966 L61.828,17.966 L61.828,4.94 L64.064,4.94 L64.064,17.966 Z" id="Shape"></path>
                    <path d="M77.844,6.552 C77.844,7.02 77.688,7.41 77.376,7.722 L69.498,15.73 L77.532,15.73 L77.532,17.966 L68.432,17.966 C67.8946667,17.966 67.4266667,17.8273333 67.028,17.55 C66.6293333,17.2726667 66.43,16.874 66.43,16.354 C66.43,15.9553333 66.638,15.5393333 67.054,15.106 L74.724,7.15 L66.69,7.15 L66.69,4.94 L75.816,4.94 C77.168,4.94 77.844,5.47733333 77.844,6.552 Z" id="Path"></path>
                    <path d="M90.714,17.966 L88.504,17.966 L88.504,9.048 C88.504,8.35466667 88.374,7.865 88.114,7.579 C87.854,7.293 87.386,7.15 86.71,7.15 L82.706,7.15 C82.342,7.15 82.16,7.34933333 82.16,7.748 L82.16,17.966 L79.924,17.966 L79.924,0.338 L82.16,0.338 L82.16,4.94 L87.152,4.94 C89.5266667,4.94 90.714,6.04933333 90.714,8.268 L90.714,17.966 Z" id="Path"></path>
                    <path d="M104.312,14.716 C104.312,15.6866667 104.030333,16.471 103.467,17.069 C102.903667,17.667 102.136667,17.966 101.166,17.966 L96.902,17.966 C95.8793333,17.966 95.0646667,17.706 94.458,17.186 C93.7993333,16.6313333 93.47,15.8513333 93.47,14.846 L93.47,12.506 C93.47,11.4833333 93.7646667,10.686 94.354,10.114 C94.9433333,9.542 95.7493333,9.256 96.772,9.256 L102.102,9.256 C102.084667,8.528 101.980667,8.01666667 101.79,7.722 C101.547333,7.34066667 101.079333,7.15 100.386,7.15 L93.522,7.15 L93.522,4.94 L100.698,4.94 C103.107333,4.94 104.312,6.04066667 104.312,8.242 L104.312,14.716 Z M102.076,14.274 L102.076,11.778 C102.076,11.5006667 101.902667,11.362 101.556,11.362 L97.292,11.362 C96.2346667,11.362 95.706,11.8993333 95.706,12.974 L95.706,14.248 C95.706,14.6986667 95.862,15.0583333 96.174,15.327 C96.486,15.5956667 96.8673333,15.73 97.318,15.73 L100.516,15.73 C101.556,15.73 102.076,15.2446667 102.076,14.274 Z" id="Shape"></path>
                    <path d="M117.91,14.716 C117.91,15.86 117.546,16.7266667 116.818,17.316 C116.298,17.7493333 115.518,17.966 114.478,17.966 L110.604,17.966 C109.425333,17.966 108.541333,17.68 107.952,17.108 C107.362667,16.536 107.068,15.7386667 107.068,14.716 L107.068,8.242 C107.068,7.098 107.440667,6.22266667 108.186,5.616 C108.723333,5.16533333 109.529333,4.94 110.604,4.94 L114.478,4.94 C115.552667,4.94 116.341333,5.15666667 116.844,5.59 C117.554667,6.19666667 117.91,7.08066667 117.91,8.242 L117.91,14.716 Z M115.674,14.118 L115.674,8.866 C115.674,8.27666667 115.500667,7.826 115.154,7.514 C114.876667,7.27133333 114.443333,7.15 113.854,7.15 L111.202,7.15 C110.595333,7.15 110.144667,7.27133333 109.85,7.514 C109.486,7.80866667 109.304,8.25933333 109.304,8.866 L109.304,14.092 C109.304,14.664 109.486,15.0973333 109.85,15.392 C110.127333,15.6173333 110.526,15.73 111.046,15.73 L114.01,15.73 C114.512667,15.73 114.894,15.6173333 115.154,15.392 C115.500667,15.0973333 115.674,14.6726667 115.674,14.118 Z" id="Shape"></path>
                </g>
                <g id="logo">
                    <rect id="Rectangle" fill="url(#linearGradient-1)" x="0" y="0" width="11.8344156" height="12.2727273" rx="2"></rect>
                    <rect id="Rectangle" fill="url(#linearGradient-2)" x="17.0941558" y="0" width="11.8344156" height="12.2727273" rx="2"></rect>
                    <rect id="Rectangle" fill="url(#linearGradient-3)" x="0" y="17.7272727" width="11.8344156" height="12.2727273" rx="2"></rect>
                    <rect id="Rectangle" fill="url(#linearGradient-4)" x="17.0941558" y="17.7272727" width="11.8344156" height="12.2727273" rx="2"></rect>
                </g>
            </g>
        </g>
    </g>
</svg>